<svg width="45" height="45" viewBox="0 0 38 39" fill="none" xmlns="http://www.w3.org/2000/svg">
<path fill-rule="evenodd" clip-rule="evenodd" d="M15.042 5.7474C9.35806 5.7474 4.75033 10.3551 4.75033 16.0391C4.75033 21.723 9.35806 26.3307 15.042 26.3307C20.7259 26.3307 25.3337 21.723 25.3337 16.0391C25.3337 10.3551 20.7259 5.7474 15.042 5.7474ZM3.16699 16.0391C3.16699 9.48068 8.48361 4.16406 15.042 4.16406C21.6004 4.16406 26.917 9.48068 26.917 16.0391C26.917 19.034 25.8083 21.77 23.9789 23.8589L34.5991 34.4791C34.9082 34.7882 34.9082 35.2895 34.5991 35.5987C34.2899 35.9078 33.7887 35.9078 33.4795 35.5987L22.8592 24.9784C20.7705 26.8063 18.0356 27.9141 15.042 27.9141C8.48361 27.9141 3.16699 22.5974 3.16699 16.0391Z" fill="#555555"/>
</svg>
