<svg width="45" height="45" viewBox="0 0 52 53" fill="none" xmlns="http://www.w3.org/2000/svg">
<path d="M44.4163 39.9077C33.6468 50.6773 18.3526 50.6773 7.58301 39.9077C10.09 37.4007 14.8475 34.6216 21.2152 32.0746V26.9804C21.2152 26.9804 18.6681 26.0864 18.6681 20.6128C16.1211 20.6128 16.1211 15.5187 18.6681 15.5187C18.6681 14.7851 14.4018 8.05325 19.7659 9.15103C21.0394 4.05692 33.5939 4.05692 34.8674 9.15103C35.6264 12.1846 33.7263 14.9812 33.7263 15.5187C36.1944 15.5187 35.5194 20.6128 33.7467 20.6128C33.7467 26.0864 31.4034 26.9804 31.4034 26.9804V32.0746C37.771 34.6216 41.1669 36.7471 44.4163 39.9077Z" stroke="#555555" stroke-width="2.20833" stroke-linecap="round" stroke-linejoin="round"/>
</svg>
